<svg width="899" height="62" viewBox="0 0 899 62" fill="none" xmlns="http://www.w3.org/2000/svg">
<g clip-path="url(#clip0_44_45)">
<path d="M10 31H888" stroke="#ECCA44" stroke-width="16"/>
<path d="M31 61.5C47.8447 61.5 61.5 47.8447 61.5 31C61.5 14.1553 47.8447 0.5 31 0.5C14.1553 0.5 0.5 14.1553 0.5 31C0.5 47.8447 14.1553 61.5 31 61.5Z" fill="#ECCA44" stroke="#ECCA44"/>
<path d="M196 61.5C212.845 61.5 226.5 47.8447 226.5 31C226.5 14.1553 212.845 0.5 196 0.5C179.155 0.5 165.5 14.1553 165.5 31C165.5 47.8447 179.155 61.5 196 61.5Z" fill="#ECCA44" stroke="#ECCA44"/>
<path d="M362 61.5C378.845 61.5 392.5 47.8447 392.5 31C392.5 14.1553 378.845 0.5 362 0.5C345.155 0.5 331.5 14.1553 331.5 31C331.5 47.8447 345.155 61.5 362 61.5Z" fill="#ECCA44" stroke="#ECCA44"/>
<path d="M535 61.5C551.845 61.5 565.5 47.8447 565.5 31C565.5 14.1553 551.845 0.5 535 0.5C518.155 0.5 504.5 14.1553 504.5 31C504.5 47.8447 518.155 61.5 535 61.5Z" fill="#ECCA44" stroke="#ECCA44"/>
<path d="M702 61.5C718.845 61.5 732.5 47.8447 732.5 31C732.5 14.1553 718.845 0.5 702 0.5C685.155 0.5 671.5 14.1553 671.5 31C671.5 47.8447 685.155 61.5 702 61.5Z" fill="#ECCA44" stroke="#ECCA44"/>
<path d="M868 61.5C884.845 61.5 898.5 47.8447 898.5 31C898.5 14.1553 884.845 0.5 868 0.5C851.155 0.5 837.5 14.1553 837.5 31C837.5 47.8447 851.155 61.5 868 61.5Z" fill="#ECCA44" stroke="#ECCA44"/>
<path d="M31.5 54C43.9264 54 54 43.9264 54 31.5C54 19.0736 43.9264 9 31.5 9C19.0736 9 9 19.0736 9 31.5C9 43.9264 19.0736 54 31.5 54Z" fill="#181818"/>
</g>
<defs>
<clipPath id="clip0_44_45">
<rect width="899" height="62" fill="white"/>
</clipPath>
</defs>
</svg>
